<mxfile host="app.diagrams.net" modified="2024-01-16T16:53:32.405Z" agent="Mozilla/5.0 (Windows NT 10.0; Win64; x64) AppleWebKit/537.36 (KHTML, like Gecko) Chrome/120.0.0.0 Safari/537.36" etag="wBwZPQdvcBZNpZnX4FBQ" version="22.1.18" type="device">
  <diagram name="Page-1" id="Iu4b7SxwuUeUU_e3lEGw">
    <mxGraphModel dx="1600" dy="836" grid="1" gridSize="10" guides="1" tooltips="1" connect="1" arrows="1" fold="1" page="1" pageScale="1" pageWidth="850" pageHeight="1100" math="0" shadow="0">
      <root>
        <mxCell id="0" />
        <mxCell id="1" parent="0" />
        <mxCell id="lu4thm8GTgOJuo7hXUzR-1" value="" style="rounded=0;whiteSpace=wrap;html=1;" vertex="1" parent="1">
          <mxGeometry x="280" width="240" height="620" as="geometry" />
        </mxCell>
        <mxCell id="lu4thm8GTgOJuo7hXUzR-2" value="Melakukan Pencarian" style="ellipse;whiteSpace=wrap;html=1;" vertex="1" parent="1">
          <mxGeometry x="320" y="70" width="170" height="40" as="geometry" />
        </mxCell>
        <mxCell id="lu4thm8GTgOJuo7hXUzR-3" value="Melihat Ranking Situs" style="ellipse;whiteSpace=wrap;html=1;" vertex="1" parent="1">
          <mxGeometry x="320" y="120" width="170" height="40" as="geometry" />
        </mxCell>
        <mxCell id="lu4thm8GTgOJuo7hXUzR-5" style="edgeStyle=orthogonalEdgeStyle;rounded=0;orthogonalLoop=1;jettySize=auto;html=1;entryX=0;entryY=0.5;entryDx=0;entryDy=0;" edge="1" parent="1" source="lu4thm8GTgOJuo7hXUzR-4" target="lu4thm8GTgOJuo7hXUzR-2">
          <mxGeometry relative="1" as="geometry" />
        </mxCell>
        <mxCell id="lu4thm8GTgOJuo7hXUzR-6" style="edgeStyle=orthogonalEdgeStyle;rounded=0;orthogonalLoop=1;jettySize=auto;html=1;" edge="1" parent="1" source="lu4thm8GTgOJuo7hXUzR-4" target="lu4thm8GTgOJuo7hXUzR-3">
          <mxGeometry relative="1" as="geometry" />
        </mxCell>
        <mxCell id="lu4thm8GTgOJuo7hXUzR-12" style="edgeStyle=orthogonalEdgeStyle;rounded=0;orthogonalLoop=1;jettySize=auto;html=1;" edge="1" parent="1" source="lu4thm8GTgOJuo7hXUzR-4" target="lu4thm8GTgOJuo7hXUzR-11">
          <mxGeometry relative="1" as="geometry" />
        </mxCell>
        <mxCell id="lu4thm8GTgOJuo7hXUzR-4" value="Pengguna" style="shape=umlActor;verticalLabelPosition=bottom;verticalAlign=top;html=1;outlineConnect=0;" vertex="1" parent="1">
          <mxGeometry x="150" y="60" width="30" height="60" as="geometry" />
        </mxCell>
        <mxCell id="lu4thm8GTgOJuo7hXUzR-14" style="edgeStyle=orthogonalEdgeStyle;rounded=0;orthogonalLoop=1;jettySize=auto;html=1;entryX=0;entryY=0.5;entryDx=0;entryDy=0;" edge="1" parent="1" source="lu4thm8GTgOJuo7hXUzR-9" target="lu4thm8GTgOJuo7hXUzR-13">
          <mxGeometry relative="1" as="geometry" />
        </mxCell>
        <mxCell id="lu4thm8GTgOJuo7hXUzR-19" style="edgeStyle=orthogonalEdgeStyle;rounded=0;orthogonalLoop=1;jettySize=auto;html=1;entryX=0;entryY=0.5;entryDx=0;entryDy=0;" edge="1" parent="1" source="lu4thm8GTgOJuo7hXUzR-9" target="lu4thm8GTgOJuo7hXUzR-15">
          <mxGeometry relative="1" as="geometry" />
        </mxCell>
        <mxCell id="lu4thm8GTgOJuo7hXUzR-20" style="edgeStyle=orthogonalEdgeStyle;rounded=0;orthogonalLoop=1;jettySize=auto;html=1;" edge="1" parent="1" source="lu4thm8GTgOJuo7hXUzR-9" target="lu4thm8GTgOJuo7hXUzR-16">
          <mxGeometry relative="1" as="geometry" />
        </mxCell>
        <mxCell id="lu4thm8GTgOJuo7hXUzR-21" style="edgeStyle=orthogonalEdgeStyle;rounded=0;orthogonalLoop=1;jettySize=auto;html=1;entryX=0;entryY=0.5;entryDx=0;entryDy=0;" edge="1" parent="1" source="lu4thm8GTgOJuo7hXUzR-9" target="lu4thm8GTgOJuo7hXUzR-17">
          <mxGeometry relative="1" as="geometry" />
        </mxCell>
        <mxCell id="lu4thm8GTgOJuo7hXUzR-30" style="edgeStyle=orthogonalEdgeStyle;rounded=0;orthogonalLoop=1;jettySize=auto;html=1;entryX=0;entryY=0.5;entryDx=0;entryDy=0;" edge="1" parent="1" source="lu4thm8GTgOJuo7hXUzR-9" target="lu4thm8GTgOJuo7hXUzR-29">
          <mxGeometry relative="1" as="geometry">
            <Array as="points">
              <mxPoint x="250" y="270" />
              <mxPoint x="250" y="430" />
            </Array>
          </mxGeometry>
        </mxCell>
        <mxCell id="lu4thm8GTgOJuo7hXUzR-9" value="Staff" style="shape=umlActor;verticalLabelPosition=bottom;verticalAlign=top;html=1;outlineConnect=0;" vertex="1" parent="1">
          <mxGeometry x="150" y="240" width="30" height="60" as="geometry" />
        </mxCell>
        <mxCell id="lu4thm8GTgOJuo7hXUzR-10" value="" style="endArrow=block;endSize=16;endFill=0;html=1;rounded=0;" edge="1" parent="1">
          <mxGeometry width="160" relative="1" as="geometry">
            <mxPoint x="165" y="220" as="sourcePoint" />
            <mxPoint x="165" y="150" as="targetPoint" />
          </mxGeometry>
        </mxCell>
        <mxCell id="lu4thm8GTgOJuo7hXUzR-11" value="Melihat Peta Situs" style="ellipse;whiteSpace=wrap;html=1;" vertex="1" parent="1">
          <mxGeometry x="320" y="20" width="170" height="40" as="geometry" />
        </mxCell>
        <mxCell id="lu4thm8GTgOJuo7hXUzR-13" value="Melihat Daftar Halaman Web" style="ellipse;whiteSpace=wrap;html=1;" vertex="1" parent="1">
          <mxGeometry x="320" y="200" width="170" height="40" as="geometry" />
        </mxCell>
        <mxCell id="lu4thm8GTgOJuo7hXUzR-15" value="Menggunakan Fitur&amp;nbsp;&lt;i&gt;Crawling&lt;/i&gt;" style="ellipse;whiteSpace=wrap;html=1;" vertex="1" parent="1">
          <mxGeometry x="320" y="250" width="170" height="40" as="geometry" />
        </mxCell>
        <mxCell id="lu4thm8GTgOJuo7hXUzR-16" value="Melihat Daftar &lt;i&gt;Domain&lt;/i&gt;" style="ellipse;whiteSpace=wrap;html=1;" vertex="1" parent="1">
          <mxGeometry x="320" y="300" width="170" height="40" as="geometry" />
        </mxCell>
        <mxCell id="lu4thm8GTgOJuo7hXUzR-17" value="Melihat Daftar Kata" style="ellipse;whiteSpace=wrap;html=1;" vertex="1" parent="1">
          <mxGeometry x="320" y="350" width="170" height="40" as="geometry" />
        </mxCell>
        <mxCell id="lu4thm8GTgOJuo7hXUzR-26" style="edgeStyle=orthogonalEdgeStyle;rounded=0;orthogonalLoop=1;jettySize=auto;html=1;" edge="1" parent="1" source="lu4thm8GTgOJuo7hXUzR-22" target="lu4thm8GTgOJuo7hXUzR-24">
          <mxGeometry relative="1" as="geometry" />
        </mxCell>
        <mxCell id="lu4thm8GTgOJuo7hXUzR-27" style="edgeStyle=orthogonalEdgeStyle;rounded=0;orthogonalLoop=1;jettySize=auto;html=1;entryX=0;entryY=0.5;entryDx=0;entryDy=0;" edge="1" parent="1" source="lu4thm8GTgOJuo7hXUzR-22" target="lu4thm8GTgOJuo7hXUzR-25">
          <mxGeometry relative="1" as="geometry" />
        </mxCell>
        <mxCell id="lu4thm8GTgOJuo7hXUzR-22" value="Root" style="shape=umlActor;verticalLabelPosition=bottom;verticalAlign=top;html=1;outlineConnect=0;" vertex="1" parent="1">
          <mxGeometry x="150" y="420" width="30" height="60" as="geometry" />
        </mxCell>
        <mxCell id="lu4thm8GTgOJuo7hXUzR-23" value="" style="endArrow=block;endSize=16;endFill=0;html=1;rounded=0;" edge="1" parent="1">
          <mxGeometry width="160" relative="1" as="geometry">
            <mxPoint x="164.58" y="410" as="sourcePoint" />
            <mxPoint x="164.58" y="340" as="targetPoint" />
          </mxGeometry>
        </mxCell>
        <mxCell id="lu4thm8GTgOJuo7hXUzR-24" value="Menambahkan Staff" style="ellipse;whiteSpace=wrap;html=1;" vertex="1" parent="1">
          <mxGeometry x="320" y="470" width="170" height="40" as="geometry" />
        </mxCell>
        <mxCell id="lu4thm8GTgOJuo7hXUzR-25" value="Menghapus Staff" style="ellipse;whiteSpace=wrap;html=1;" vertex="1" parent="1">
          <mxGeometry x="320" y="530" width="170" height="40" as="geometry" />
        </mxCell>
        <mxCell id="lu4thm8GTgOJuo7hXUzR-29" value="Mengubah &lt;i&gt;Profile&lt;/i&gt;" style="ellipse;whiteSpace=wrap;html=1;" vertex="1" parent="1">
          <mxGeometry x="315" y="410" width="170" height="40" as="geometry" />
        </mxCell>
      </root>
    </mxGraphModel>
  </diagram>
</mxfile>
